<svg xmlns="http://www.w3.org/2000/svg" viewBox="0 0 147.11 158.63"><defs><style>.cls-1,.cls-2,.cls-3{fill:#fff;stroke:#fff;stroke-miterlimit:10;}.cls-1{stroke-width:2px;}.cls-3{stroke-width:0.25px;}</style></defs><title>Untitled-1</title><g id="Layer_1" data-name="Layer 1"><line class="cls-1" x1="106.91" y1="13.96" x2="46.9" y2="43.89"/><line class="cls-1" x1="46.9" y1="43.89" x2="56.58" y2="119.26"/><line class="cls-1" x1="56.58" y1="119.26" x2="115.97" y2="73.8"/><line class="cls-1" x1="115.97" y1="73.8" x2="46.9" y2="43.89"/><line class="cls-1" x1="115.97" y1="73.8" x2="106.91" y2="13.96"/><line class="cls-1" x1="106.91" y1="13.96" x2="144.62" y2="75.93"/><line class="cls-1" x1="144.62" y1="75.93" x2="115.97" y2="73.8"/><line class="cls-1" x1="115.97" y1="73.8" x2="111.29" y2="141.22"/><line class="cls-1" x1="111.29" y1="141.22" x2="144.62" y2="75.93"/><line class="cls-1" x1="56.58" y1="119.26" x2="111.29" y2="141.22"/><line class="cls-1" x1="111.29" y1="141.22" x2="39.99" y2="143.48"/><line class="cls-1" x1="39.99" y1="143.48" x2="56.58" y2="119.26"/><line class="cls-1" x1="56.58" y1="119.26" x2="0.89" y2="82.09"/><line class="cls-1" x1="39.99" y1="143.48" x2="0.89" y2="82.09"/><line class="cls-1" x1="0.89" y1="82.09" x2="46.9" y2="43.89"/><line class="cls-1" x1="46.9" y1="43.89" x2="34.58" y2="16.49"/><line class="cls-1" x1="34.58" y1="16.49" x2="0.89" y2="82.09"/><line class="cls-1" x1="34.58" y1="16.49" x2="106.91" y2="13.96"/><line class="cls-2" x1="144.95" y1="75.96" x2="99.28" y2="114.18"/><line class="cls-2" x1="99.28" y1="114.18" x2="111.99" y2="140.93"/><line class="cls-2" x1="99.28" y1="114.18" x2="40.35" y2="143.16"/><line class="cls-2" x1="99.28" y1="114.18" x2="89.96" y2="38.5"/><line class="cls-2" x1="89.96" y1="38.5" x2="144.95" y2="75.96"/><line class="cls-2" x1="89.96" y1="38.5" x2="106.24" y2="13.91"/><line class="cls-2" x1="89.96" y1="38.5" x2="29.51" y2="84.57"/><line class="cls-2" x1="29.51" y1="84.57" x2="34.17" y2="17.49"/><line class="cls-2" x1="35.85" y1="17.61" x2="91.65" y2="38.62"/><line class="cls-2" x1="99.28" y1="114.18" x2="31.2" y2="84.69"/><line class="cls-2" x1="29.51" y1="84.57" x2="40.35" y2="143.16"/><line class="cls-2" x1="29.51" y1="84.57" x2="2.55" y2="82.56"/><line class="cls-3" x1="139.99" y1="44.97" x2="4.89" y2="112.32"/><line class="cls-3" x1="136.33" y1="122.1" x2="10.23" y2="35.32"/><line class="cls-3" x1="78.59" y1="2.22" x2="67.9" y2="156.22"/><line class="cls-3" x1="112.66" y1="140.98" x2="29.2" y2="84.2"/><line class="cls-3" x1="89.96" y1="38.5" x2="1.56" y2="82.14"/><line class="cls-3" x1="46.86" y1="44.58" x2="39.94" y2="144.17"/><line class="cls-3" x1="106.21" y1="14.25" x2="99.24" y2="114.69"/><line class="cls-3" x1="143.94" y1="75.88" x2="55.21" y2="119.5"/><line class="cls-3" x1="115.3" y1="73.75" x2="33.83" y2="17.46"/><path class="cls-3" d="M375.35,152.48a2.38,2.38,0,0,1-2.53,2.22,2.41,2.41,0,0,1-2.19-2.58,2.37,2.37,0,0,1,2.52-2.22A2.41,2.41,0,0,1,375.35,152.48Z" transform="translate(-257.02 -78.5)"/><path class="cls-3" d="M316,197.94a2.36,2.36,0,1,1-2.19-2.57A2.37,2.37,0,0,1,316,197.94Z" transform="translate(-257.02 -78.5)"/><path class="cls-3" d="M370.67,219.9a2.38,2.38,0,0,1-2.53,2.22,2.41,2.41,0,0,1-2.19-2.58,2.37,2.37,0,0,1,2.52-2.22A2.41,2.41,0,0,1,370.67,219.9Z" transform="translate(-257.02 -78.5)"/><path class="cls-3" d="M404,154.61A2.36,2.36,0,1,1,401.8,152,2.37,2.37,0,0,1,404,154.61Z" transform="translate(-257.02 -78.5)"/><path class="cls-3" d="M306.23,123.25a2.36,2.36,0,0,1-2.52,2.22,2.4,2.4,0,1,1,2.52-2.22Z" transform="translate(-257.02 -78.5)"/><path class="cls-3" d="M365.59,92.93a2.38,2.38,0,0,1-2.53,2.22,2.41,2.41,0,0,1-2.19-2.58,2.38,2.38,0,0,1,2.53-2.22A2.41,2.41,0,0,1,365.59,92.93Z" transform="translate(-257.02 -78.5)"/><path class="cls-3" d="M294,95.16a2.36,2.36,0,0,1-2.52,2.22A2.4,2.4,0,1,1,294,95.16Z" transform="translate(-257.02 -78.5)"/><path class="cls-3" d="M261.93,161.24a2.37,2.37,0,1,1-4.72-.35,2.36,2.36,0,0,1,2.52-2.22A2.39,2.39,0,0,1,261.93,161.24Z" transform="translate(-257.02 -78.5)"/><path class="cls-3" d="M299.73,221.84a2.37,2.37,0,0,1-2.53,2.22,2.4,2.4,0,0,1-2.19-2.57,2.37,2.37,0,0,1,2.52-2.22A2.4,2.4,0,0,1,299.73,221.84Z" transform="translate(-257.02 -78.5)"/><path class="cls-3" d="M358.65,192.86a2.36,2.36,0,1,1-2.19-2.57A2.37,2.37,0,0,1,358.65,192.86Z" transform="translate(-257.02 -78.5)"/><path class="cls-3" d="M288.89,163.24a2.36,2.36,0,0,1-2.53,2.22,2.4,2.4,0,0,1-2.19-2.57,2.37,2.37,0,0,1,2.53-2.22A2.4,2.4,0,0,1,288.89,163.24Z" transform="translate(-257.02 -78.5)"/><path class="cls-3" d="M349.34,117.17a2.36,2.36,0,0,1-2.53,2.22,2.4,2.4,0,0,1-2.19-2.57,2.37,2.37,0,0,1,2.53-2.22A2.4,2.4,0,0,1,349.34,117.17Z" transform="translate(-257.02 -78.5)"/><polygon class="cls-3" points="139.53 45.28 141.87 42.36 143.78 45.6 139.53 45.28"/><polygon class="cls-3" points="137.44 125.8 136.32 122.2 140.03 122.37 137.44 125.8"/><polygon class="cls-3" points="65.62 158.39 67.82 155.36 69.88 158.5 65.62 158.39"/><polygon class="cls-3" points="1.18 112.28 4.89 112.31 3.6 115.84 1.18 112.28"/><polygon class="cls-3" points="8.83 31.65 10.16 35.18 6.45 35.22 8.83 31.65"/><polygon class="cls-3" points="81.18 0.57 78.77 3.44 76.94 0.15 81.18 0.57"/></g></svg>
